<svg width="60" height="61" viewBox="0 0 60 61" fill="none" xmlns="http://www.w3.org/2000/svg">
<g id="flag 1">
<g id="Line">
<path id="Vector" d="M57.3438 6.34023C57.1225 5.94148 56.705 5.69523 56.25 5.69523H33.52C32.17 1.80148 26.25 2.75648 26.25 6.94523V45.9165C21.105 46.5452 16.25 48.5752 16.25 51.9452C16.25 56.0052 23.3337 58.1952 30 58.1952C36.6663 58.1952 43.75 56.0052 43.75 51.9452C43.75 48.5752 38.8975 46.5452 33.75 45.9177V28.1952H56.25C56.705 28.1952 57.1225 27.949 57.3438 27.5502C57.5638 27.154 57.5513 26.6677 57.3112 26.2815L51.4738 16.9452L57.31 7.60773C57.5512 7.22273 57.5638 6.73648 57.3438 6.34023ZM28.75 6.94523C28.775 5.31773 31.22 5.29023 31.25 6.94523V49.4452C31.225 51.0727 28.78 51.1002 28.75 49.4452V6.94523ZM41.25 51.9452C41.25 53.4752 36.8675 55.6952 30 55.6952C23.1325 55.6952 18.75 53.4752 18.75 51.9452C18.75 50.8165 21.3513 49.0765 26.25 48.4377C25.9712 50.9002 27.3713 53.154 30 53.1952C32.0675 53.1952 33.75 51.5127 33.75 49.4452V48.4377C38.6488 49.0765 41.25 50.8152 41.25 51.9452ZM48.94 16.2827C48.6863 16.6877 48.6863 17.2027 48.94 17.609L53.995 25.6952H33.75V8.19523H53.995L48.94 16.2827Z" fill="black"/>
<path id="Vector_2" d="M48.94 16.2828C48.6863 16.6878 48.6863 17.2028 48.94 17.6091L53.995 25.6953H33.75V8.19531H53.995L48.94 16.2828Z" fill="#E4002B"/>
</g>
</g>
</svg>
