<svg width="60" height="61" viewBox="0 0 60 61" fill="none" xmlns="http://www.w3.org/2000/svg">
<g id="note (1) 2">
<g id="Line">
<path id="Vector" d="M57.5 9.23044C57.58 5.05669 52.2225 2.83044 49.3312 5.84669L40.7325 14.4454H6.25C4.1825 14.4454 2.5 16.1279 2.5 18.1954V53.1954C2.5 55.2629 4.1825 56.9454 6.25 56.9454H53.75C55.8175 56.9454 57.5 55.2629 57.5 53.1954V18.1954C57.5 16.2879 56.0638 14.7267 54.22 14.4929C55.6025 13.1229 57.675 11.4129 57.5 9.23044ZM53.75 16.9454C54.44 16.9454 55 17.5054 55 18.1954V53.1954C55 53.8854 54.44 54.4454 53.75 54.4454H6.25C5.56 54.4454 5 53.8854 5 53.1954V18.1954C5 17.5054 5.56 16.9454 6.25 16.9454H38.2325L34.1163 21.0617C33.98 21.1979 33.8763 21.3654 33.815 21.5504L31.315 29.0504C30.9663 29.9879 31.9637 30.9804 32.8962 30.6317L40.3963 28.1317C40.58 28.0704 40.7475 27.9667 40.885 27.8304L51.7675 16.9454H53.75ZM54.3313 10.8467C51.7038 13.4742 42.1187 23.0592 39.325 25.8529L34.4762 27.4692L36.0925 22.6204C39.6213 19.0917 47.5075 11.2054 51.0988 7.61419C53.2588 5.53419 56.4163 8.67794 54.3313 10.8467Z" fill="black"/>
<path id="Vector_2" d="M54.3316 10.8467C51.7041 13.4742 42.1191 23.0592 39.3253 25.853L34.4766 27.4692L36.0928 22.6205C39.6216 19.0917 47.5078 11.2055 51.0991 7.61423C53.2591 5.53423 56.4166 8.67798 54.3316 10.8467Z" fill="#E4002B"/>
<path id="Vector_3" d="M34.9996 35.6953C33.8209 35.644 31.9034 35.984 31.0346 34.9628C28.8746 32.7715 25.3446 33.144 23.4471 35.4803C23.1534 35.8478 22.4409 35.664 22.3221 35.3728C22.1959 35.2403 22.1359 34.8253 22.3184 34.5153C23.9571 30.3328 18.0559 27.409 15.7159 31.2403L12.6784 36.3028C12.3234 36.8953 12.5146 37.6628 13.1071 38.0178C13.6896 38.369 14.4646 38.1865 14.8221 37.589L17.8596 32.5253C18.6084 31.3453 20.5509 32.2478 19.9971 33.589C19.5271 34.6228 19.6096 35.8328 20.2521 36.7753C21.3171 38.4353 23.8571 38.679 25.2159 37.249C26.1996 35.964 28.0359 35.5315 29.2684 36.7315C30.6734 38.3128 33.0634 38.2565 34.9996 38.1953C36.6271 38.189 36.6409 35.7028 34.9996 35.6953Z" fill="black"/>
</g>
</g>
</svg>
