<svg width="60" height="61" viewBox="0 0 60 61" fill="none" xmlns="http://www.w3.org/2000/svg">
<g id="house-plants 1">
<g id="Line">
<path id="Vector" d="M54.3541 50.1579C48.1441 43.9479 39.9791 40.4091 31.2479 40.0991V28.8191C43.9391 29.2354 55.1579 20.3029 57.4766 7.79915C57.6179 7.3354 57.2804 6.31915 56.2479 6.31915H49.9979C41.8866 6.31915 34.8279 10.8916 31.2479 17.5904L30.0191 20.1812L28.7479 17.5904C25.1679 10.8916 18.1091 6.31915 9.99785 6.31915H3.74785C2.9916 6.30165 2.3591 7.0554 2.5191 7.79915C4.80285 19.9791 15.4541 28.8191 27.8466 28.8191H28.7479V40.0991C20.0166 40.4091 11.8516 43.9479 5.6416 50.1579L2.8641 52.9354C2.0816 53.6654 2.66285 55.1116 3.74785 55.0691H56.2479C57.3204 55.0966 57.9266 53.6791 57.1316 52.9354L54.3541 50.1579ZM49.9979 8.81915H54.6916C52.0791 19.0454 42.8304 26.3191 32.1491 26.3191H31.2891C31.9354 16.5616 40.0791 8.81915 49.9979 8.81915ZM27.8466 26.3191C17.1654 26.3191 7.91535 19.0454 5.3041 8.81915H9.99785C19.9166 8.81915 28.0604 16.5616 28.7066 26.3191H27.8466ZM6.76535 52.5691C18.9554 39.3079 41.0416 39.3091 53.2304 52.5691H6.76535Z" fill="black"/>
<path id="Vector_2" d="M49.9975 8.81934H54.6912C52.0787 19.0456 42.83 26.3193 32.1487 26.3193H31.2887C31.935 16.5618 40.0787 8.81934 49.9975 8.81934ZM27.8462 26.3193C17.165 26.3193 7.91496 19.0456 5.30371 8.81934H9.99746C19.9162 8.81934 28.06 16.5618 28.7062 26.3193H27.8462Z" fill="#E4002B"/>
</g>
</g>
</svg>
