<svg width="60" height="61" viewBox="0 0 60 61" fill="none" xmlns="http://www.w3.org/2000/svg">
<g id="world-map 1">
<g id="map">
<path id="Subtract" fill-rule="evenodd" clip-rule="evenodd" d="M52.0711 9.97483C50.1957 8.09947 47.6522 7.0459 45 7.0459C42.3478 7.0459 39.8043 8.09947 37.9289 9.97483C36.0536 11.8502 35 14.3937 35 17.0459C35 21.3209 41.5625 28.9959 45 32.5709C48.4375 28.9959 55 21.3084 55 17.0459C55 14.3937 53.9464 11.8502 52.0711 9.97483ZM48.5868 21.5388C47.5245 22.246 46.2762 22.6222 45 22.6197C43.2915 22.6164 41.6541 21.9354 40.4472 20.7261C39.2403 19.5169 38.5625 17.8782 38.5625 16.1697C38.5625 14.8935 38.9411 13.646 39.6504 12.585C40.3597 11.524 41.3678 10.6973 42.5471 10.2095C43.7264 9.72169 45.0239 9.59469 46.2754 9.84458C47.527 10.0945 48.6762 10.71 49.5778 11.6133C50.4793 12.5166 51.0926 13.6671 51.3401 14.9191C51.5875 16.1711 51.458 17.4683 50.9679 18.6467C50.4778 19.8251 49.6492 20.8315 48.5868 21.5388Z" fill="#E4002B"/>
<path id="Vector" d="M57.5 17.0451C57.4952 14.3287 56.6056 11.6879 54.9659 9.52216C53.3263 7.35645 51.0258 5.78381 48.4126 5.04222C45.7994 4.30064 43.0157 4.43048 40.4829 5.41211C37.9501 6.39373 35.8059 8.1737 34.375 10.4826C29.5933 9.03654 24.4773 9.13507 19.7548 10.7642C15.0323 12.3934 10.9437 15.4701 8.0707 19.5569C5.19767 23.6437 3.68647 28.5324 3.75205 33.5276C3.81763 38.5228 5.45665 43.3701 8.43598 47.38C11.4153 51.39 15.5832 54.3584 20.3469 55.863C25.1105 57.3676 30.2273 57.3318 34.9694 55.7606C39.7116 54.1895 43.8375 51.1631 46.7604 47.1118C49.6833 43.0605 51.2543 38.1907 51.25 33.1951C51.2422 32.0022 51.1461 30.8114 50.9625 29.6326C54.1 25.7951 57.5 20.7826 57.5 17.0451ZM45 7.04513C47.6522 7.04513 50.1957 8.0987 52.0711 9.97407C53.9464 11.8494 55 14.393 55 17.0451C55 21.3076 48.4375 28.9951 45 32.5701C41.5625 28.9951 35 21.3201 35 17.0451C35 14.393 36.0536 11.8494 37.9289 9.97407C39.8043 8.0987 42.3478 7.04513 45 7.04513ZM21.7375 12.7576C19.7705 16.5635 18.746 20.786 18.75 25.0701C18.75 31.4951 23.75 31.8326 28.1625 32.1326C31.1875 32.3326 34.3125 32.5451 36.8 34.2326C38.2125 35.1826 38.9625 38.7951 39.625 41.9826C40.0072 44.4016 40.683 46.7649 41.6375 49.0201C39.8366 50.6361 37.7738 51.9338 35.5375 52.8576C36.0005 51.3464 36.2405 49.7757 36.25 48.1951C36.25 41.1451 31.1125 36.9451 22.5 36.9451C16.3875 36.9451 6.88749 32.5451 6.24999 32.3201C6.43906 27.8429 8.03872 23.54 10.8203 20.0265C13.6019 16.513 17.423 13.9689 21.7375 12.7576ZM6.33749 35.0201C6.61249 35.1201 14.175 39.2701 22.5 39.4451C26.7 39.5326 33.75 40.5826 33.75 48.1951C33.7376 50.1376 33.3115 52.0552 32.5 53.8201C30.8634 54.2225 29.1853 54.4322 27.5 54.4451C22.1816 54.4429 17.0574 52.4464 13.1394 48.8501C9.22131 45.2537 6.79425 40.3189 6.33749 35.0201ZM48.75 33.1951C48.7486 38.312 46.8923 43.2549 43.525 47.1076C42.8951 45.2735 42.4103 43.3927 42.075 41.4826C41.2375 37.4701 40.4625 33.6826 38.2 32.1576C35.15 30.0951 31.5375 29.8576 28.3375 29.6576C23.425 29.3076 21.25 28.9951 21.25 25.0701C21.2487 20.4855 22.5492 15.9947 25 12.1201C25 12.1201 26.6625 11.9451 27.5 11.9451C29.4535 11.9451 31.3974 12.2186 33.275 12.7576C32.7677 14.1304 32.5053 15.5816 32.5 17.0451C32.5 23.5826 42.9375 34.0701 44.125 35.2326C44.3587 35.4617 44.6728 35.59 45 35.59C45.3272 35.59 45.6413 35.4617 45.875 35.2326C46.2125 34.9076 47.325 33.7951 48.7125 32.2576C48.75 32.5701 48.75 32.8826 48.75 33.1951Z" fill="black"/>
<path id="Vector_2" d="M45 22.6202C46.2762 22.6227 47.5245 22.2465 48.5868 21.5393C49.6492 20.832 50.4778 19.8256 50.9679 18.6472C51.458 17.4688 51.5875 16.1716 51.3401 14.9196C51.0926 13.6676 50.4793 12.5171 49.5778 11.6138C48.6762 10.7105 47.527 10.095 46.2754 9.84507C45.0239 9.59518 43.7264 9.72218 42.5471 10.21C41.3678 10.6978 40.3597 11.5245 39.6504 12.5855C38.9411 13.6464 38.5625 14.894 38.5625 16.1702C38.5625 17.8787 39.2403 19.5174 40.4472 20.7266C41.6541 21.9359 43.2915 22.6169 45 22.6202ZM45 12.2327C45.7823 12.2302 46.5477 12.4601 47.1992 12.8932C47.8507 13.3263 48.3589 13.943 48.6594 14.6653C48.9599 15.3876 49.0392 16.1828 48.8872 16.9502C48.7352 17.7176 48.3587 18.4226 47.8056 18.9758C47.2524 19.5289 46.5474 19.9054 45.78 20.0574C45.0126 20.2094 44.2174 20.1301 43.4951 19.8296C42.7728 19.5291 42.1561 19.0209 41.723 18.3694C41.2899 17.7179 41.06 16.9525 41.0625 16.1702C41.0658 15.1269 41.4817 14.1273 42.2194 13.3896C42.9571 12.6519 43.9567 12.236 45 12.2327Z" fill="black"/>
</g>
</g>
</svg>
