<svg width="60" height="61" viewBox="0 0 60 61" fill="none" xmlns="http://www.w3.org/2000/svg">
<g id="hotel 1">
<g id="Line">
<g id="Vector">
<path d="M4.99805 56.9463C18.1093 56.9475 57.498 56.9463 57.498 56.9463C58.1893 56.9463 58.748 56.3863 58.748 55.6963V14.4463C58.748 13.7563 58.1893 13.1963 57.498 13.1963H48.748V9.44629H49.998C50.6893 9.44629 51.248 8.88629 51.248 8.19629V3.19629C51.248 2.50629 50.6893 1.94629 49.998 1.94629H12.498C11.808 1.94629 11.248 2.50629 11.248 3.19629V8.19629C11.248 8.88629 11.808 9.44629 12.498 9.44629H13.748V13.1963H4.99805C4.30805 13.1963 3.74805 13.7563 3.74805 14.4463V55.6963C3.74805 56.3863 4.30805 56.9463 4.99805 56.9463ZM24.998 54.4463V32.4463H37.498V54.4463H24.998ZM56.248 15.6963V54.4463H48.748V15.6963H56.248ZM13.748 4.44629H48.748V6.94629H13.748V4.44629ZM46.248 9.44629C46.263 11.3963 46.2368 51.425 46.248 54.4463H39.998V38.1963V29.8251H22.498V38.1963V54.4463H16.248V14.4463V9.44629H46.248ZM6.24805 15.6963H13.748V54.4463H6.24805V15.6963Z" fill="black"/>
<path d="M48.748 4.44629H13.748V6.94629H48.748V4.44629Z" fill="black"/>
</g>
<path id="Vector_2" d="M48.748 4.44629H13.748V6.94629H48.748V4.44629Z" fill="#E4002B"/>
<path id="Vector_3" d="M24.998 32.4463V54.4463H37.498V32.4463H24.998Z" fill="#E4002B"/>
</g>
</g>
</svg>
