<svg width="60" height="61" viewBox="0 0 60 61" fill="none" xmlns="http://www.w3.org/2000/svg">
<g id="medal 1">
<g id="Line">
<path id="Subtract" fill-rule="evenodd" clip-rule="evenodd" d="M17.6262 18.5825L13.0137 23.195L17.6262 27.8075C17.8571 28.0403 17.9873 28.3546 17.9887 28.6825V35.2075H24.5137C24.8416 35.2089 25.1558 35.3391 25.3887 35.57L30.0012 40.1825L34.6137 35.57C34.8465 35.3391 35.1607 35.2089 35.4887 35.2075H42.0137V28.6825C42.015 28.3546 42.1452 28.0403 42.3762 27.8075L46.9887 23.195L42.3762 18.5825C42.1452 18.3497 42.015 18.0354 42.0137 17.7075V11.1825H35.4887C35.1607 11.1811 34.8465 11.051 34.6137 10.82L30.0012 6.20752L25.3887 10.82C25.1558 11.051 24.8416 11.1811 24.5137 11.1825H17.9887V17.7075C17.9873 18.0354 17.8571 18.3497 17.6262 18.5825ZM36.2482 32.5498C34.3982 33.786 32.2231 34.4458 29.998 34.4458C27.0144 34.4458 24.1529 33.2605 22.0431 31.1508C19.9333 29.041 18.748 26.1795 18.748 23.1958C18.748 20.9708 19.4078 18.7957 20.644 16.9456C21.8802 15.0956 23.6372 13.6536 25.6929 12.8022C27.7485 11.9507 30.0105 11.7279 32.1928 12.162C34.3751 12.5961 36.3797 13.6675 37.953 15.2409C39.5263 16.8142 40.5978 18.8188 41.0319 21.001C41.466 23.1833 41.2432 25.4453 40.3917 27.501C39.5402 29.5567 38.0983 31.3137 36.2482 32.5498Z" fill="#E4002B"/>
<path id="Vector" d="M29.998 34.4458C32.2231 34.4458 34.3982 33.786 36.2482 32.5498C38.0983 31.3137 39.5402 29.5567 40.3917 27.501C41.2432 25.4453 41.466 23.1833 41.0319 21.001C40.5978 18.8188 39.5263 16.8142 37.953 15.2409C36.3797 13.6675 34.3751 12.5961 32.1928 12.162C30.0105 11.7279 27.7485 11.9507 25.6929 12.8022C23.6372 13.6536 21.8802 15.0956 20.644 16.9456C19.4078 18.7957 18.748 20.9708 18.748 23.1958C18.748 26.1795 19.9333 29.041 22.0431 31.1508C24.1529 33.2605 27.0144 34.4458 29.998 34.4458ZM29.998 14.4458C31.7286 14.4458 33.4204 14.959 34.8593 15.9204C36.2982 16.8819 37.4197 18.2485 38.082 19.8473C38.7443 21.4462 38.9175 23.2055 38.5799 24.9028C38.2423 26.6002 37.4089 28.1593 36.1852 29.383C34.9615 30.6067 33.4024 31.4401 31.7051 31.7777C30.0078 32.1153 28.2484 31.942 26.6496 31.2798C25.0507 30.6175 23.6841 29.496 22.7227 28.057C21.7612 26.6181 21.248 24.9264 21.248 23.1958C21.248 20.8752 22.1699 18.6496 23.8109 17.0086C25.4518 15.3677 27.6774 14.4458 29.998 14.4458Z" fill="black"/>
<path id="Vector_2" d="M8.94987 51.3702C9.08079 51.5756 9.26883 51.7382 9.49089 51.8381C9.71296 51.938 9.95937 51.9709 10.1999 51.9327L18.0624 50.8077L21.4124 57.5077C21.5173 57.7125 21.6766 57.8843 21.8729 58.0043C22.0692 58.1243 22.2948 58.1878 22.5249 58.1878C22.7549 58.1878 22.9805 58.1243 23.1768 58.0043C23.3731 57.8843 23.5325 57.7125 23.6374 57.5077L29.9999 44.7452L36.3874 57.5077C36.4923 57.7125 36.6516 57.8843 36.8479 58.0043C37.0442 58.1243 37.2698 58.1878 37.4999 58.1878C37.7299 58.1878 37.9555 58.1243 38.1518 58.0043C38.3481 57.8843 38.5075 57.7125 38.6124 57.5077L41.9624 50.8077L49.8249 51.9327C50.0636 51.9715 50.3084 51.9402 50.5297 51.8425C50.751 51.7449 50.9392 51.5852 51.0715 51.3828C51.2038 51.1803 51.2745 50.9439 51.2751 50.702C51.2757 50.4602 51.2062 50.2233 51.0749 50.0202L43.2374 37.7077C43.5689 37.7077 43.8868 37.576 44.1213 37.3416C44.3557 37.1072 44.4874 36.7893 44.4874 36.4577V29.2077L49.6124 24.0827C49.7295 23.9665 49.8225 23.8283 49.886 23.676C49.9494 23.5236 49.9821 23.3603 49.9821 23.1952C49.9821 23.0302 49.9494 22.8668 49.886 22.7145C49.8225 22.5622 49.7295 22.4239 49.6124 22.3077L44.4874 17.1827V9.93274C44.4874 9.60122 44.3557 9.28327 44.1213 9.04885C43.8868 8.81443 43.5689 8.68274 43.2374 8.68274H35.9874L30.8624 3.55774C30.7462 3.44058 30.6079 3.34758 30.4556 3.28412C30.3033 3.22066 30.1399 3.18799 29.9749 3.18799C29.8099 3.18799 29.6465 3.22066 29.4942 3.28412C29.3418 3.34758 29.2036 3.44058 29.0874 3.55774L23.9624 8.68274H16.7124C16.3809 8.68274 16.0629 8.81443 15.8285 9.04885C15.5941 9.28327 15.4624 9.60122 15.4624 9.93274V17.1827L10.3374 22.3077C10.2202 22.4239 10.1272 22.5622 10.0638 22.7145C10.0003 22.8668 9.96762 23.0302 9.96762 23.1952C9.96762 23.3603 10.0003 23.5236 10.0638 23.676C10.1272 23.8283 10.2202 23.9665 10.3374 24.0827L15.4624 29.2077V36.4577C15.4624 36.7893 15.5941 37.1072 15.8285 37.3416C16.0629 37.576 16.3809 37.7077 16.7124 37.7077L8.94987 50.0202C8.82065 50.2217 8.75195 50.4559 8.75195 50.6952C8.75195 50.9345 8.82065 51.1688 8.94987 51.3702ZM47.4999 49.0702L41.4249 48.1952C41.1726 48.1676 40.9179 48.2173 40.6947 48.3379C40.4714 48.4585 40.2901 48.6441 40.1749 48.8702L37.4999 54.1452L31.5249 42.1952L36.0124 37.7077H40.2499L47.4999 49.0702ZM13.0124 23.1952L17.6249 18.5827C17.8558 18.3499 17.986 18.0357 17.9874 17.7077V11.1827H24.5124C24.8403 11.1814 25.1545 11.0512 25.3874 10.8202L29.9999 6.20774L34.6124 10.8202C34.8452 11.0512 35.1594 11.1814 35.4874 11.1827H42.0124V17.7077C42.0138 18.0357 42.1439 18.3499 42.3749 18.5827L46.9874 23.1952L42.3749 27.8077C42.1439 28.0406 42.0138 28.3548 42.0124 28.6827V35.2077H35.4874C35.1594 35.2091 34.8452 35.3393 34.6124 35.5702L29.9999 40.1827L25.3874 35.5702C25.1545 35.3393 24.8403 35.2091 24.5124 35.2077H17.9874V28.6827C17.986 28.3548 17.8558 28.0406 17.6249 27.8077L13.0124 23.1952ZM19.7499 37.7077H23.9874L28.4749 42.1952L22.4999 54.1452L19.8624 48.8827C19.7472 48.6567 19.5659 48.471 19.3426 48.3504C19.1193 48.2298 18.8646 48.1801 18.6124 48.2077L12.4999 49.0702L19.7499 37.7077Z" fill="black"/>
</g>
</g>
</svg>
