<svg width="60" height="61" viewBox="0 0 60 61" fill="none" xmlns="http://www.w3.org/2000/svg">
<g id="kfc chicken" clip-path="url(#clip0_268_9608)">
<path id="Vector" d="M25.9245 53.5879H28.6322C28.8192 53.5879 28.9707 53.7394 28.9707 53.9264V60.3573C28.9707 60.5443 28.8192 60.6958 28.6322 60.6958H25.9245C25.7375 60.6958 25.586 60.5443 25.586 60.3573V53.9264C25.586 53.7394 25.7375 53.5879 25.9245 53.5879Z" fill="black"/>
<path id="Vector_2" d="M17.3693 50.2013L19.3171 52.0823C19.4515 52.2121 19.4553 52.4264 19.3254 52.5609L13.9176 58.1608C13.7878 58.2953 13.5735 58.299 13.439 58.1692L11.4912 56.2882C11.3567 56.1583 11.353 55.9441 11.4829 55.8096L16.8907 50.2096C17.0205 50.0752 17.2348 50.0714 17.3693 50.2013Z" fill="black"/>
<path id="Vector_3" d="M58.8506 12.4818L53.2469 8.32063C53.1965 8.28324 53.1368 8.26058 53.0743 8.25517C53.0118 8.24976 52.949 8.26182 52.893 8.29C52.837 8.31819 52.7899 8.36138 52.757 8.41478C52.7241 8.46817 52.7066 8.52966 52.7066 8.59238V16.8037C52.7066 16.8661 52.7238 16.9272 52.7564 16.9804C52.7889 17.0336 52.8355 17.0767 52.8911 17.1051C52.9466 17.1335 53.0089 17.146 53.071 17.1412C53.1332 17.1364 53.1928 17.1146 53.2434 17.0781L58.8471 13.0279C58.8902 12.9967 58.9254 12.9558 58.9497 12.9086C58.9741 12.8613 58.987 12.8089 58.9873 12.7557C58.9876 12.7025 58.9754 12.65 58.9517 12.6024C58.928 12.5548 58.8933 12.5135 58.8506 12.4818Z" fill="#E4002B"/>
<path id="Vector_4" d="M41.7733 13.6604C38.1931 13.6604 35.2908 10.758 35.2908 7.17784C35.2908 3.59764 38.1931 0.695312 41.7733 0.695312C45.3535 0.695312 48.2559 3.59764 48.2559 7.17784C48.2559 10.758 45.3535 13.6604 41.7733 13.6604Z" fill="#E4002B"/>
<path id="Vector_5" d="M7.56496 41.6348C11.1494 46.8845 16.6648 50.0662 23.9538 51.0951C32.7015 52.3271 38.789 49.1303 42.3548 46.2313C47.4725 42.0715 50.7793 35.8385 51.2041 29.5514V7.94336H42.8879L38.0443 23.7788H3.69454C2.84497 28.6121 3.67254 35.935 7.56496 41.6348Z" fill="white"/>
<path id="Vector_6" d="M1.5736 22.3213L1.72842 21.6694C1.74602 21.5953 1.7881 21.5293 1.84785 21.482C1.90761 21.4348 1.98156 21.4091 2.05773 21.4091H36.0385C36.111 21.4091 36.1816 21.3858 36.2398 21.3427C36.2981 21.2996 36.341 21.239 36.3622 21.1696L41.0592 5.8132C41.0804 5.74389 41.1233 5.68321 41.1816 5.64011C41.2398 5.597 41.3104 5.57373 41.3829 5.57373H53.2328C53.3226 5.57373 53.4087 5.60939 53.4722 5.67287C53.5356 5.73634 53.5713 5.82243 53.5713 5.9122V29.59L53.5679 29.6678C53.111 36.6133 49.4775 43.4927 43.847 48.0705C40.508 50.7851 35.172 53.7365 27.7611 53.7365C26.3761 53.7343 24.9929 53.6354 23.6216 53.4404C15.6439 52.315 9.58353 48.7932 5.60649 42.9698C1.03035 36.2697 0.284019 27.7707 1.5736 22.3213ZM42.3527 46.2309C47.4667 42.074 50.7725 35.847 51.2011 29.5644C51.2017 29.5555 51.202 29.5466 51.202 29.5377V8.28149C51.202 8.19173 51.1663 8.10564 51.1029 8.04216C51.0394 7.97868 50.9533 7.94302 50.8635 7.94302H43.1362C43.0637 7.94302 42.9931 7.96629 42.9348 8.0094C42.8766 8.05251 42.8337 8.11318 42.8125 8.18249L38.1155 23.5389C38.0943 23.6083 38.0514 23.6689 37.9931 23.712C37.9348 23.7551 37.8643 23.7784 37.7918 23.7784H3.97965C3.89939 23.7781 3.82164 23.8063 3.76033 23.8581C3.69903 23.9099 3.65818 23.9818 3.64513 24.061C2.87595 28.8938 3.74555 36.0446 7.56285 41.6345C11.1473 46.8842 16.6627 50.0658 23.9516 51.0948C32.6994 52.3268 38.7869 49.1299 42.3527 46.2309Z" fill="black"/>
<path id="Vector_7" d="M18.1239 23.8716V37.9334L35.665 32.044V23.8716H18.1239Z" fill="#E4002B"/>
<path id="Vector_8" d="M38.0342 21.8404V33.5028C38.0342 33.5737 38.0119 33.6428 37.9705 33.7004C37.9291 33.758 37.8707 33.8011 37.8035 33.8236L16.2005 41.0782C16.1496 41.0953 16.0954 41.1001 16.0423 41.0921C15.9892 41.084 15.9388 41.0635 15.8952 41.0322C15.8516 41.0008 15.816 40.9596 15.7916 40.9118C15.7671 40.864 15.7543 40.8111 15.7543 40.7574V21.8404C15.7543 21.7507 15.7899 21.6646 15.8534 21.6011C15.9169 21.5376 16.003 21.502 16.0928 21.502H37.6957C37.7855 21.502 37.8716 21.5376 37.935 21.6011C37.9985 21.6646 38.0342 21.7507 38.0342 21.8404ZM18.5698 37.7832L35.4341 32.1211C35.5014 32.0986 35.5598 32.0554 35.6012 31.9979C35.6426 31.9403 35.6649 31.8712 35.6649 31.8003V24.2097C35.6649 24.12 35.6292 24.0339 35.5657 23.9704C35.5023 23.9069 35.4162 23.8713 35.3264 23.8713H18.4621C18.3723 23.8713 18.2862 23.9069 18.2227 23.9704C18.1593 24.0339 18.1236 24.12 18.1236 24.2097V37.4624C18.1236 37.5161 18.1364 37.569 18.1609 37.6168C18.1854 37.6646 18.2209 37.7058 18.2645 37.7372C18.308 37.7685 18.3585 37.789 18.4116 37.7971C18.4647 37.8051 18.5189 37.8003 18.5698 37.7832Z" fill="black"/>
<path id="Vector_9" d="M46.2865 14.4343C45.1989 14.4343 44.3172 13.5526 44.3172 12.465C44.3172 11.3773 45.1989 10.4956 46.2865 10.4956C47.3742 10.4956 48.2559 11.3773 48.2559 12.465C48.2559 13.5526 47.3742 14.4343 46.2865 14.4343Z" fill="black"/>
</g>
<defs>
<clipPath id="clip0_268_9608">
<rect width="60" height="60" fill="white" transform="translate(0 0.695312)"/>
</clipPath>
</defs>
</svg>
